<svg width="200" height="200" viewBox="0 0 200 200" fill="none" xmlns="http://www.w3.org/2000/svg">
<path d="M7.2915 37.4189C7.2915 16.753 29.6289 0 57.1837 0H142.792C170.347 0 192.684 16.753 192.684 37.4189C192.684 50.5047 183.728 62.0219 170.162 68.7098C183.728 75.398 192.684 86.9148 192.684 100.001C192.684 120.667 170.347 137.42 142.792 137.42H141.709C128.791 137.42 117.02 133.738 108.159 127.697V162.175C108.159 183.116 85.2379 200 57.4524 200C29.9666 200 7.2915 183.298 7.2915 162.581C7.2915 149.496 16.247 137.979 29.8119 131.291C16.247 124.603 7.2915 113.086 7.2915 100.001C7.2915 86.9148 16.2478 75.398 29.8136 68.7098C16.2478 62.0219 7.2915 50.5047 7.2915 37.4189ZM91.8165 74.8387H57.1837C38.6546 74.8387 23.6341 86.1043 23.6341 100.001C23.6341 113.844 38.5388 125.076 56.9691 125.162C57.0405 125.162 57.1118 125.162 57.1837 125.162H91.8165V74.8387ZM108.159 100.001C108.159 113.897 123.18 125.163 141.709 125.163H142.792C161.321 125.163 176.341 113.897 176.341 100.001C176.341 86.1043 161.321 74.8387 142.792 74.8387H141.709C123.18 74.8387 108.159 86.1043 108.159 100.001ZM57.1837 137.42C57.1118 137.42 57.0405 137.42 56.9691 137.42C38.5388 137.506 23.6341 148.738 23.6341 162.581C23.6341 176.427 38.8553 187.743 57.4524 187.743C76.3493 187.743 91.8165 176.245 91.8165 162.175V137.42H57.1837ZM57.1837 12.257C38.6546 12.257 23.6341 23.5224 23.6341 37.4189C23.6341 51.3156 38.6546 62.5809 57.1837 62.5809H91.8165V12.257H57.1837ZM108.159 62.5809H142.792C161.321 62.5809 176.341 51.3156 176.341 37.4189C176.341 23.5224 161.321 12.257 142.792 12.257H108.159V62.5809Z" fill="black"/>
</svg>
