<svg width="200" height="200" viewBox="0 0 200 200" fill="none" xmlns="http://www.w3.org/2000/svg">
<g clip-path="url(#clip0_504_2)">
<path d="M196.228 92.2071L108.928 15.8008C106.512 13.6881 103.235 12.5013 99.8191 12.5013C96.4029 12.5013 93.1264 13.6881 90.7097 15.8008L72.5579 31.6719L95.5579 51.7969C107.638 48.2266 119.076 58.3477 114.928 68.8594L137.098 88.2579C152.379 83.6485 164.411 100.367 152.933 110.402C141.107 120.75 121.589 109.281 127.933 95.8164L107.241 77.7344V125.332C118.536 130.231 117.178 141.68 111.295 146.816C108.42 149.33 104.522 150.743 100.457 150.743C96.3931 150.743 92.4951 149.33 89.6204 146.816C81.7766 139.941 84.6784 128.492 94.6427 124.941V76.8946C85.357 73.5704 83.6606 64.8868 86.3213 59.3164L63.6472 39.4532L3.77219 91.8516C1.35656 93.9657 -0.000488281 96.8328 -0.000488281 99.8223C-0.000488281 102.812 1.35656 105.679 3.77219 107.793L91.0981 184.199C93.514 186.312 96.7897 187.498 100.205 187.498C103.621 187.498 106.896 186.312 109.312 184.199L196.228 108.148C198.643 106.034 200 103.167 200 100.178C200 97.1883 198.643 94.3212 196.228 92.2071Z" fill="#E36D00"/>
</g>
<defs>
<clipPath id="clip0_504_2">
<rect width="200" height="200" fill="white"/>
</clipPath>
</defs>
</svg>
