<svg width="200" height="200" viewBox="0 0 200 200" fill="none" xmlns="http://www.w3.org/2000/svg">
<path d="M163.359 69.2187C161.25 68.5156 159.141 67.8516 157.031 67.2266C157.383 65.7812 157.695 64.3359 158.008 62.8906C162.813 39.6094 159.648 20.8984 148.984 14.7266C138.711 8.82812 121.953 14.9609 105 29.7266C103.32 31.1719 101.68 32.6953 100.117 34.2187C99.0625 33.2031 97.9687 32.1875 96.875 31.2109C79.1016 15.4297 61.2891 8.78906 50.625 15C40.3906 20.9375 37.3437 38.5547 41.6406 60.5859C42.0703 62.7734 42.5391 64.9219 43.0859 67.1094C40.5859 67.8125 38.125 68.5937 35.8203 69.4141C14.9609 76.6406 0 88.0469 0 99.8437C0 112.031 15.9375 124.258 37.6172 131.68C39.375 132.266 41.1328 132.852 42.9297 133.359C42.3438 135.703 41.8359 138.008 41.3672 140.391C37.2656 162.07 40.4688 179.258 50.7031 185.156C61.25 191.25 78.9844 185 96.25 169.883C97.6172 168.672 98.9844 167.422 100.352 166.094C102.07 167.773 103.867 169.375 105.664 170.937C122.383 185.312 138.906 191.133 149.102 185.234C159.648 179.141 163.086 160.664 158.633 138.164C158.281 136.445 157.891 134.687 157.461 132.891C158.711 132.539 159.922 132.148 161.133 131.758C183.672 124.297 200 112.227 200 99.8437C200 88.0078 184.609 76.5234 163.359 69.2187V69.2187ZM110.508 36.0547C125.039 23.3984 138.594 18.4375 144.766 21.9922C151.367 25.7812 153.906 41.0937 149.766 61.2109C149.492 62.5391 149.219 63.8281 148.867 65.1172C140.195 63.1641 131.406 61.7578 122.578 60.9766C117.5 53.7109 111.953 46.7578 105.938 40.2344C107.461 38.7891 108.945 37.4219 110.508 36.0547V36.0547ZM65.3125 120.117C67.3047 123.516 69.3359 126.914 71.4844 130.234C65.3906 129.57 59.3359 128.594 53.3594 127.305C55.0781 121.68 57.2266 115.859 59.7266 109.922C61.5234 113.359 63.3594 116.758 65.3125 120.117V120.117ZM53.4766 73.125C59.1016 71.875 65.0781 70.8594 71.2891 70.0781C69.2187 73.3203 67.1875 76.6406 65.2734 80C63.3594 83.3203 61.4844 86.7187 59.7266 90.1562C57.2656 84.3359 55.1953 78.6328 53.4766 73.125ZM64.1797 100.039C66.7578 94.6484 69.5703 89.375 72.5391 84.1797C75.5078 78.9844 78.7109 73.9453 82.0703 68.9844C87.9297 68.5547 93.9062 68.3203 100 68.3203C106.094 68.3203 112.109 68.5547 117.93 68.9844C121.25 73.9062 124.414 78.9453 127.422 84.1016C130.43 89.2578 133.242 94.5312 135.898 99.8828C133.281 105.273 130.469 110.586 127.461 115.82C124.492 121.016 121.328 126.055 118.008 131.055C112.188 131.484 106.133 131.68 100 131.68C93.8672 131.68 87.9297 131.484 82.1875 131.133C78.7891 126.172 75.5859 121.094 72.5781 115.898C69.5703 110.703 66.7969 105.43 64.1797 100.039ZM134.727 120.039C136.719 116.602 138.594 113.125 140.43 109.609C142.93 115.273 145.117 121.016 147.031 126.914C140.977 128.281 134.844 129.336 128.672 130.039C130.781 126.758 132.773 123.398 134.727 120.039ZM140.352 90.1562C138.516 86.7187 136.641 83.2812 134.687 79.9219C132.773 76.6016 130.781 73.3203 128.711 70.0781C135 70.8594 141.016 71.9141 146.641 73.2031C144.844 78.9844 142.734 84.6094 140.352 90.1562V90.1562ZM100.078 46.2109C104.18 50.6641 108.047 55.3516 111.641 60.1953C103.906 59.8437 96.1328 59.8437 88.3984 60.1953C92.2266 55.1562 96.1719 50.4687 100.078 46.2109ZM54.7656 22.2656C61.3281 18.4375 75.8984 23.9062 91.25 37.5C92.2266 38.3594 93.2031 39.2969 94.2187 40.2344C88.1641 46.7578 82.5781 53.7109 77.4609 60.9766C68.6328 61.7578 59.8828 63.125 51.2109 65.0391C50.7031 63.0469 50.2734 61.0156 49.8437 58.9844C46.1719 40.0781 48.5937 25.8203 54.7656 22.2656V22.2656ZM45.1953 125.234C43.5547 124.766 41.9531 124.258 40.3516 123.711C32.0313 121.094 22.5781 116.953 15.7422 111.523C11.7969 108.789 9.14062 104.57 8.39844 99.8437C8.39844 92.6953 20.7422 83.5547 38.5547 77.3437C40.7812 76.5625 43.0469 75.8594 45.3125 75.1953C47.9688 83.6719 51.1719 91.9922 54.8828 100.039C51.1328 108.203 47.8906 116.641 45.1953 125.234V125.234ZM90.7422 163.516C84.2969 169.414 76.8359 174.102 68.7109 177.305C64.375 179.375 59.375 179.57 54.9219 177.812C48.7109 174.219 46.1328 160.43 49.6484 141.875C50.0781 139.687 50.5469 137.5 51.0938 135.352C59.8438 137.227 68.6719 138.516 77.6172 139.18C82.7734 146.484 88.4375 153.477 94.4922 160.039C93.2422 161.25 91.9922 162.422 90.7422 163.516ZM100.312 154.023C96.3281 149.727 92.3437 144.961 88.4766 139.844C92.2266 140 96.0938 140.078 100 140.078C104.023 140.078 107.969 140 111.875 139.805C108.281 144.766 104.414 149.492 100.312 154.023V154.023ZM151.367 165.742C151.016 170.508 148.672 174.961 144.922 177.969C138.711 181.562 125.469 176.875 111.172 164.609C109.531 163.203 107.891 161.68 106.211 160.117C112.187 153.516 117.695 146.523 122.695 139.18C131.641 138.437 140.547 137.07 149.336 135.078C149.727 136.68 150.078 138.281 150.391 139.844C152.305 148.281 152.617 157.07 151.367 165.742V165.742ZM158.477 123.75C157.383 124.102 156.289 124.453 155.156 124.766C152.422 116.25 149.063 107.93 145.195 99.8437C148.945 91.875 152.109 83.6719 154.766 75.2734C156.797 75.8594 158.75 76.4844 160.625 77.1094C178.828 83.3594 191.602 92.6562 191.602 99.7656C191.602 107.422 177.969 117.305 158.477 123.75ZM100 117.891C109.883 117.891 117.891 109.883 117.891 100C117.891 90.1172 109.883 82.1094 100 82.1094C90.1172 82.1094 82.1094 90.1172 82.1094 100C82.1094 109.883 90.1172 117.891 100 117.891Z" fill="#59A4E9"/>
</svg>
